<?xml version="1.0" encoding="utf-8"?>
<!-- Generator: Adobe Illustrator 23.0.0, SVG Export Plug-In . SVG Version: 6.00 Build 0)  -->
<svg version="1.1" id="Capa_1" xmlns="http://www.w3.org/2000/svg" xmlns:xlink="http://www.w3.org/1999/xlink" x="0px" y="0px"
	 viewBox="0 0 12 12" style="enable-background:new 0 0 12 12;" xml:space="preserve">
<style type="text/css">
	.st0{fill:#212529;}
	.st1{fill-rule:evenodd;clip-rule:evenodd;fill:#212529;}
</style>
<path class="st0" d="M11.6,1.5c0.1,0.1,0.1,0.4,0,0.5l-0.8,0.8L9.3,1.3l0.8-0.8c0.1-0.1,0.4-0.1,0.5,0L11.6,1.5L11.6,1.5z M10.3,3.3
	L8.8,1.8L3.7,6.9c0,0-0.1,0.1-0.1,0.1L3,8.9C3,9,3,9.1,3.1,9.1c0,0,0.1,0,0.1,0l1.8-0.6c0.1,0,0.1,0,0.1-0.1L10.3,3.3L10.3,3.3z"/>
<path class="st1" d="M0.8,10.1c0,0.6,0.5,1.1,1.1,1.1h8.3c0.6,0,1.1-0.5,1.1-1.1V5.6c0-0.2-0.2-0.4-0.4-0.4s-0.4,0.2-0.4,0.4v4.5
	c0,0.2-0.2,0.4-0.4,0.4H1.9c-0.2,0-0.4-0.2-0.4-0.4V1.9c0-0.2,0.2-0.4,0.4-0.4h4.9c0.2,0,0.4-0.2,0.4-0.4S7,0.8,6.8,0.8H1.9
	c-0.6,0-1.1,0.5-1.1,1.1V10.1z"/>
</svg>
